<svg id="a" xmlns="http://www.w3.org/2000/svg" viewBox="0 0 2500 2500">
  <defs>
    <style>
      .ixm.green { fill: #9ccc65; }
      .ixm.blue { fill: #61aeee; }
      .ixm.red { fill: #f92672; }
    </style>
  </defs>
  <path class="ixm black" d="M746.3295,721.9399c0-93.9841,.1226-187.9686-.2243-281.9514-.0288-7.8206,2.5222-11.7789,9.001-15.4928,60.2505-34.5372,120.3282-69.376,180.459-104.122,91.7775-53.0326,183.5598-106.0563,275.3328-159.0966,12.0842-6.9842,24.2439-13.8509,36.1257-21.1664,4.5481-2.8002,8.0576-2.6243,12.6261,.0308,51.1334,29.7173,102.4003,59.2047,153.597,88.813,53.2155,30.7758,106.3865,61.6286,159.59,92.4254,60.3936,34.9588,120.7394,70.0012,181.302,104.6648,5.8776,3.3641,6.2725,7.4707,6.2659,13.0313-.0941,80.3196-.0643,160.6394-.0643,240.9591,0,108.3149-.0332,216.63,.0837,324.9448,.007,6.3867-1.0337,10.5142-7.5354,14.2131-53.4301,30.3964-106.5118,61.405-159.7134,92.2034-93.4624,54.1056-186.9319,108.199-280.4056,162.285-17.8322,10.3181-35.8055,20.3988-53.4709,30.9941-4.3845,2.6298-7.4093,2.1993-11.5764-.2201-80.7473-46.8871-161.5676-93.6486-242.4028-140.3843-82.2736-47.5674-164.5773-95.0829-246.8737-142.6107q-12.1013-6.9888-12.1163-20.568v-278.9526Zm926.5421,.3452c0-72.6586,.0001-145.3171,0-217.9756,0-5.9993-.324-12.0215,.0981-17.991,.3579-5.0638-1.6017-8.1859-5.989-10.2678-1.7959-.8521-3.4091-2.0815-5.1422-3.0747-47.3723-27.1479-94.7668-54.2571-142.1218-81.4351-85.7573-49.2181-171.5363-98.3993-257.1492-147.8676-6.7025-3.8727-11.5333-3.6521-18.0367,.3205-19.8831,12.1454-40.2255,23.5387-60.3876,35.2277-114.0609,66.1268-228.0815,132.3235-342.2841,198.2047-6.6176,3.8175-8.0031,8.1675-7.9952,15.1225,.1739,153.9826,.1999,307.9655-.0644,461.9478-.0132,7.705,1.7526,12.7121,8.9891,15.4714,1.5308,.5837,2.8538,1.7005,4.2943,2.534,43.5131,25.1796,87.0444,50.3279,130.5414,75.5352,88.7213,51.4154,177.4968,102.7384,266.0045,154.5188,7.4919,4.3832,12.647,4.0486,19.7156-.1021,46.5098-27.3094,93.2556-54.2167,139.9108-81.2787,86.6862-50.2817,173.3054-100.679,260.1464-150.6918,7.3735-4.2465,9.7156-8.8586,9.6774-17.225-.3521-76.9897-.2074-153.9818-.2074-230.9731Z"/>
  <path d="M135.6584,1782.4894c0-93.9888,.1077-187.9778-.2001-281.9656-.0252-7.6992,2.3262-11.7371,8.9306-15.5302,91.3441-52.4607,182.5362-105.1864,273.7308-157.9075,71.3467-41.2467,142.7054-82.4739,213.8753-124.024,7.3876-4.313,12.7087-4.7909,20.5071-.2345,86.9382,50.7958,174.15,101.1237,261.3094,151.5405,75.9383,43.926,151.8715,87.8611,227.9213,131.5933,5.8156,3.3442,8.1227,6.9684,8.1145,13.9235-.2198,188.6438-.2133,377.288-.0215,565.9318,.0068,6.7605-1.8812,10.6938-7.8157,14.1099-97.3456,56.0339-194.5732,112.2727-291.8218,168.4753-67.0361,38.7422-134.1235,77.3967-200.9805,116.4458-5.2803,3.084-8.7718,2.5105-13.3682-.1541-104.3583-60.5005-208.7415-120.9573-313.149-181.3728-59.2495-34.2842-118.4604-68.6379-177.9455-102.5093-7.159-4.0767-9.2751-8.4902-9.2535-16.3564,.2583-93.988,.1667-187.9769,.1667-281.9657Zm926.257,.3619c0-77.975-.0724-155.9501,.1417-233.9244,.0166-6.0471-1.6234-9.6584-6.9445-12.7228-62.3074-35.8812-124.5028-71.9567-186.7141-108.0046-72.5789-42.0552-145.1835-84.0663-217.6423-126.3273-5.9155-3.4501-10.2083-3.7292-16.2684-.0558-21.3445,12.9388-43.1468,25.1215-64.7453,37.6429-112.3096,65.1104-224.5804,130.2878-336.9866,195.231-6.7895,3.9227-9.7011,8.0909-9.661,16.3362,.3696,75.9738,.2178,151.9501,.2178,227.9257,0,78.9746,.0674,157.9495-.1216,236.9237-.0159,6.66,1.5543,10.7089,7.8452,14.2314,27.8772,15.6099,55.3583,31.9266,82.9974,47.9623,106.5333,61.8081,213.0986,123.561,319.5409,185.5251,6.1438,3.5767,10.658,3.9131,17.0886,.1396,56.8442-33.3555,113.9459-66.2722,170.9648-99.3301,77.1766-44.7446,154.293-89.594,231.6168-134.0825,6.6693-3.8375,8.8951-7.9072,8.8639-15.5457-.3167-77.3073-.1931-154.6163-.1934-231.9248Z"/>
  <path d="M1359.6597,1782.7347c0-93.6642,.0822-187.3287-.1525-280.9923-.0193-7.6815,1.6134-12.2302,8.9387-16.41,65.5206-37.3882,130.7109-75.3549,196.0087-113.1337,86.8754-50.2633,173.7595-100.5115,260.6407-150.7649,11.7936-6.8217,23.7627-13.3623,35.3018-20.59,4.5803-2.869,7.8934-2.9728,12.5669-.2344,52.1877,30.5782,104.4948,60.9532,156.7936,91.3414,58.6226,34.0624,117.2803,68.0638,175.9031,102.1256,52.8738,30.7214,105.6833,61.5542,158.6367,92.1375,5.5107,3.1826,7.5569,6.7152,7.5493,13.2938-.218,188.9949-.2178,377.99,0,566.9849,.0076,6.5784-2.0361,10.1104-7.553,13.2869-103.3938,59.5312-206.7166,119.1863-310.0063,178.8977-60.1359,34.7642-120.244,69.5774-180.1991,104.6516-6.7957,3.9756-11.6665,4.0261-18.7124-.1055-89.1611-52.2847-178.557-104.1697-267.9255-156.1003-71.5492-41.5757-143.144-83.073-214.7131-124.6145-3.1606-1.8345-6.1334-4.0557-9.4377-5.5608-2.9221-1.3311-3.8572-3.2466-3.6658-6.2224,.1494-2.3235,.0264-4.6648,.0264-6.998-.0002-93.6642-.0004-187.3284-.0004-280.9926Zm924.3418,.1187c0-73.9956,.01-147.9913-.0168-221.9869-.0024-6.6556,1.7168-14.248-.8982-19.7141-2.843-5.9421-11.0928-7.9156-17.103-11.4015-131.0322-75.9946-262.1198-151.8942-393.0676-228.0337-5.868-3.4121-10.0339-3.8544-16.0732-.2987-42.745,25.1655-85.7428,49.9016-128.6532,74.7863-69.6932,40.4166-139.3837,80.8384-209.0699,121.267-22.4613,13.0308-44.8127,26.2557-67.4302,39.0095-5.0865,2.8684-7.4291,6.1906-6.6462,11.8641,.1805,1.3083,.0256,2.6628,.0256,3.9961,0,153.6576,0,307.3152,.0001,460.9728,0,1.9999,.2024,4.024-.0366,5.9948-.562,4.6334,1.506,7.3545,5.5107,9.5095,7.9122,4.2576,15.6124,8.91,23.3876,13.4214,126.9872,73.6764,253.9978,147.3124,380.8878,221.1556,6.7878,3.9502,11.8911,4.2141,18.906,.0603,38.9564-23.0667,78.275-45.521,117.4462-68.2256,95.3362-55.259,190.6357-110.5813,286.0515-165.7026,5.3611-3.097,6.9314-6.6804,6.9158-12.6884-.2056-77.9949-.1362-155.9905-.1362-233.9858Z"/>
  <path class="ixm green" d="M1672.8716,722.2852c0,76.9914-.1447,153.9834,.2074,230.9731,.0382,8.3664-2.3038,12.9785-9.6774,17.225-86.8409,50.0128-173.4602,100.4101-260.1464,150.6918-46.6552,27.062-93.401,53.9692-139.9108,81.2787-7.0686,4.1506-12.2236,4.4852-19.7156,.1021-88.5077-51.7804-177.2832-103.1034-266.0045-154.5188-43.4971-25.2073-87.0283-50.3557-130.5414-75.5352-1.4406-.8335-2.7635-1.9503-4.2943-2.534-7.2366-2.7593-9.0024-7.7664-8.9891-15.4714,.2643-153.9823,.2383-307.9652,.0644-461.9478-.0079-6.955,1.3776-11.305,7.9952-15.1225,114.2025-65.8812,228.2231-132.0779,342.2841-198.2047,20.1621-11.6889,40.5045-23.0823,60.3876-35.2277,6.5034-3.9726,11.3342-4.1932,18.0367-.3205,85.6129,49.4683,171.3918,98.6495,257.1492,147.8676,47.355,27.178,94.7495,54.2872,142.1218,81.4351,1.7332,.9933,3.3463,2.2226,5.1422,3.0747,4.3873,2.0819,6.3469,5.204,5.989,10.2678-.4221,5.9695-.0981,11.9916-.0981,17.991,.0001,72.6585,0,145.317,0,217.9756Zm-376.4009,7.5499c0-52.3049,0-104.6099,.0001-156.9148,0-1.9989-.0514-3.9995,.0127-5.9964q.2196-6.8475,7.504-7.0496c1.9976-.0524,3.9977-.0089,5.9966-.009,17.3242-.0018,34.649-.0848,51.9722,.0522,4.3226,.0341,6.8356-.7988,6.7953-5.9364-.1725-21.9867-.1311-43.9758-.0267-65.9633,.0205-4.3243-1.7676-5.8295-5.9723-5.753-9.6582,.1758-19.3219,.0478-28.9833,.0477-61.6332-.0008-123.2664-.0106-184.8995,.011-9.1387,.0032-9.1946,.0725-9.2112,9.2982-.0364,20.3222-.068,40.6448,.0214,60.9667,.0309,7.0596,.1956,7.2111,7.2081,7.245,18.323,.0886,36.6467,.0015,54.97,.0446,9.166,.0215,9.2738,.081,9.276,9.3738,.0259,106.6088,.027,213.2175-.0034,319.8263-.0026,8.9786-.1302,9.0272-9.6024,9.0462-18.3234,.0367-36.6486,.1542-54.9689-.0781-5.0542-.0641-7.0596,1.3572-7.0021,6.6968,.2292,21.3193,.0306,42.6428,.1283,63.9641,.0311,6.7858,.2271,6.9499,7.515,6.9542,71.2946,.0422,142.5892,.0439,213.8838-.0032,7.4122-.0049,7.5472-.1854,7.5803-8.0043,.0819-19.3224,.0408-38.6456,.0238-57.9684-.0116-13.2552,.6814-11.4766-12.059-11.5316-17.6567-.0762-35.3143,.0463-52.9708-.0532-6.9626-.0392-6.9749-.2067-7.1775-7.3533-.0565-1.9973-.0104-3.9976-.0104-5.9965-.0001-51.6386-.0001-103.2772-.0001-154.9158Z"/>
  <path class="ixm red" d="M1061.9155,1782.8513c.0001,77.3085-.1234,154.6176,.1932,231.9248,.0312,7.6384-2.1946,11.7081-8.8639,15.5457-77.3238,44.4885-154.4402,89.3379-231.6168,134.0825-57.0189,33.0579-114.1205,65.9746-170.9648,99.3301-6.4306,3.7734-10.9448,3.437-17.0886-.1396-106.4423-61.9641-213.0076-123.717-319.5409-185.5251-27.6391-16.0356-55.1202-32.3524-82.9974-47.9623-6.291-3.5226-7.8612-7.5714-7.8452-14.2314,.189-78.9742,.1216-157.9491,.1216-236.9237,0-75.9756,.1517-151.9519-.2178-227.9257-.0401-8.2452,2.8715-12.4135,9.661-16.3362,112.4062-64.9431,224.677-130.1206,336.9866-195.231,21.5985-12.5215,43.4008-24.7041,64.7453-37.6429,6.0601-3.6735,10.3529-3.3943,16.2684,.0558,72.4588,42.261,145.0634,84.2721,217.6423,126.3273,62.2113,36.048,124.4067,72.1234,186.7141,108.0046,5.321,3.0643,6.9611,6.6757,6.9445,12.7228-.2141,77.9744-.1417,155.9495-.1416,233.9244Zm-342.156-1.8735c2.9111-4.0044,7.1008-6.7548,10.8591-9.9181,20.3942-17.1664,40.7032-34.4384,61.3144-51.3412,24.0649-19.7349,35.4321-45.1412,35.3692-76.0316-.0713-34.9916,.0251-69.9835-.0345-104.9751-.0141-8.2451-.1671-8.3612-8.2763-8.3824-23.6603-.0619-47.3211-.0605-70.9814-.0006-7.9979,.0201-8.1025,.1339-8.1154,8.3889-.05,31.9924-.2988,63.9882,.0957,95.9757,.1691,13.7092-4.5325,24.4053-14.954,33.2382-23.6404,20.0366-47.0704,40.3236-70.4131,60.7069-3.6506,3.188-6.2104,3.6772-10.2515,.6093-10.6106-8.0558-21.5818-15.6366-32.402-23.4169-18.6646-13.4208-37.2439-26.9622-56.0223-40.2217-8.0383-5.676-12.0139-13.0789-11.8284-22.8546,.0759-3.9972-.0405-7.9974-.0411-11.9963-.0052-30.9927,.0342-61.9854-.0323-92.9779-.0156-7.2324-.1772-7.4139-7.0483-7.4382-23.994-.0852-47.9886-.08-71.9827-.0051-7.1291,.0222-7.3416,.1791-7.3345,7.136,.0385,37.6559-.2043,75.3184,.4312,112.9653,.4975,29.474,12.713,53.1804,37.0776,70.5646,20.8808,14.8987,41.3128,30.4276,61.8872,45.7532,2.7897,2.0781,6.0862,3.7662,7.8676,6.7542-2.3318,3.9138-5.5308,5.8297-8.3073,8.1469-20.9776,17.5079-41.9343,35.0419-63.0262,52.4115-22.0558,18.1635-34.783,41.24-35.3408,69.92-.7321,37.6443-.3919,75.3086-.704,112.9626-.0429,5.172,1.6314,6.8918,6.875,6.8412,23.9921-.2321,47.9878-.0555,71.9819-.1266,7.4706-.0221,7.6031-.1667,7.6266-7.871,.0699-22.9944-.0012-45.989,.0379-68.9836,.0187-10.9961,.0251-21.9951,.2892-32.9868,.233-9.6937,3.228-18.1329,11.0523-24.662,25.0726-20.9219,50.0449-41.9661,74.8741-63.176,3.8452-3.2847,6.579-2.9236,10.3005-.1406,10.1374,7.5804,20.4858,14.8788,30.755,22.2828,18.1069,13.0549,36.1382,26.2168,54.3613,39.1075,8.1934,5.7959,13.1521,12.9279,12.7597,23.3633-.225,5.9824,.2864,11.9885,.2944,17.9843,.0381,28.6599-.0147,57.3197,.0366,85.9796,.0161,8.9912,.1184,9.0913,8.5501,9.1107,23.6609,.0544,47.3221,.0571,70.983-.0045,7.7128-.0201,7.8876-.1395,7.8831-7.5839-.0219-36.9902-.1528-73.9805-.2237-110.9707-.0148-7.7104-1.3356-15.2649-2.8891-22.7556-4.4395-21.4059-17.2254-37.1733-34.3952-49.7935-20.4026-14.9963-40.9282-29.8252-61.3432-44.8047-2.6335-1.9323-5.8171-3.3241-7.6157-6.7833Z"/>
  <path class="ixm blue" d="M2284.0015,1782.8534c0,77.9954-.0693,155.991,.1362,233.9858,.0156,6.0079-1.5547,9.5913-6.9158,12.6884-95.4158,55.1213-190.7153,110.4436-286.0515,165.7026-39.1711,22.7046-78.4897,45.1589-117.4462,68.2256-7.0149,4.1538-12.1182,3.8899-18.906-.0603-126.89-73.8433-253.9006-147.4792-380.8878-221.1556-7.7751-4.5114-15.4753-9.1638-23.3876-13.4214-4.0048-2.155-6.0728-4.8761-5.5107-9.5095,.239-1.9707,.0366-3.9949,.0366-5.9948-.0001-153.6576-.0001-307.3152-.0001-460.9728,0-1.3333,.1549-2.6877-.0256-3.9961-.7828-5.6736,1.5597-8.9957,6.6462-11.8641,22.6174-12.7538,44.9689-25.9788,67.4302-39.0095,69.6863-40.4286,139.3767-80.8503,209.0699-121.267,42.9104-24.8846,85.9082-49.6207,128.6532-74.7863,6.0393-3.5557,10.2052-3.1134,16.0732,.2987,130.9479,76.1395,262.0354,152.0391,393.0676,228.0337,6.0103,3.4858,14.26,5.4594,17.103,11.4015,2.615,5.4661,.8958,13.0585,.8982,19.7141,.0269,73.9956,.0168,147.9913,.0168,221.9869Zm-303.9368-108.6415c2.3479,3.1301,1.2194,6.5521,1.2231,9.6921,.0759,61.9835,.0565,123.967,.0566,185.9507,0,48.3206-.0175,96.641,.0168,144.9615,.0062,8.7488,.1041,8.8307,8.6819,8.848,22.9938,.0465,45.9878,.0439,68.9817,.002,8.6802-.0159,8.6819-.0896,8.7891-8.707,.0166-1.3329,.0032-2.666,.0032-3.999,.0002-155.9584,0-311.9167,0-467.8751-.0002-1.9995-.187-4.0194,.0322-5.9945,.5752-5.1869-1.5522-6.9321-6.7808-6.8658-19.3252,.2445-38.6578,.2648-57.9817-.025-4.6832-.0703-7.3239,2.0763-10.0269,5.2432-39.152,45.8737-78.6123,91.4883-116.1725,138.6946-3.2617,4.0992-6.4193,8.2812-9.5785,12.3644-3.6305-1.9154-5.3511-4.8752-7.4979-7.3704-40.6416-47.2336-81.3057-94.4484-121.7767-141.8278-4.2153-4.9351-8.4526-7.3743-15.2072-7.1556-16.3119,.528-32.653,.0906-48.9813,.196-13.6622,.0883-12.1865-1.9187-12.1893,12.2389-.031,156.2919-.0194,312.5839-.0194,468.8757,0,1.6663-.0393,3.3336,.0081,4.9985,.1997,7.026,.2089,7.1718,7.2438,7.1949,22.3271,.0735,44.655,.0872,66.9821,.007,13.7598-.0493,12.1787,1.6576,12.1833-12.2704,.0366-108.9712,.0201-217.9423,.0203-326.9135,0-3.4778,.0001-6.9556,.0001-10.9521,4.4908,1.8464,6.0361,4.9403,8.1522,7.3663,25.6263,29.3813,51.2772,58.7428,76.6716,88.3241,3.8247,4.4553,7.7147,6.472,13.6183,6.2623,11.6488-.4138,23.3364-.4603,34.981,.0098,6.5822,.2657,11.0693-1.7827,15.4047-6.8516,24.9064-29.1212,50.1359-57.9663,75.333-86.8376,2.321-2.6595,4.0594-6.0502,7.8291-7.5846Z"/>
  <path d="M1296.4707,729.835c0,51.6386,0,103.2772,.0001,154.9158,0,1.9989-.0461,3.9991,.0104,5.9965,.2026,7.1466,.2148,7.314,7.1775,7.3533,17.6565,.0995,35.3141-.0229,52.9708,.0532,12.7404,.0549,12.0474-1.7237,12.059,11.5316,.017,19.3228,.0581,38.6459-.0238,57.9684-.0331,7.8188-.1681,7.9994-7.5803,8.0043-71.2946,.0472-142.5892,.0454-213.8838,.0032-7.288-.0043-7.4839-.1684-7.515-6.9542-.0977-21.3213,.101-42.6448-.1283-63.9641-.0575-5.3396,1.9479-6.7609,7.0021-6.6968,18.3203,.2323,36.6455,.1148,54.9689,.0781,9.4722-.019,9.5999-.0676,9.6024-9.0462,.0304-106.6088,.0293-213.2175,.0034-319.8263-.0022-9.2928-.11-9.3523-9.276-9.3738-18.3232-.0431-36.647,.044-54.97-.0446-7.0126-.0339-7.1772-.1854-7.2081-7.245-.0894-20.3219-.0577-40.6445-.0214-60.9667,.0166-9.2257,.0725-9.295,9.2112-9.2982,61.6332-.0216,123.2664-.0117,184.8995-.011,9.6614,0,19.3251,.1282,28.9833-.0477,4.2047-.0766,5.9928,1.4286,5.9723,5.753-.1044,21.9875-.1458,43.9766,.0267,65.9633,.0403,5.1376-2.4727,5.9705-6.7953,5.9364-17.3231-.137-34.6479-.054-51.9722-.0522-1.9989,.0002-3.999-.0434-5.9966,.009q-7.2692,.1905-7.504,7.0496c-.0641,1.9969-.0127,3.9975-.0127,5.9964-.0001,52.3049-.0001,104.6099-.0001,156.9148Z"/>
  <path d="M719.7595,1780.9778c1.7986,3.4592,4.9822,4.8511,7.6157,6.7833,20.415,14.9795,40.9406,29.8083,61.3432,44.8047,17.1698,12.6201,29.9557,28.3876,34.3952,49.7935,1.5535,7.4907,2.8743,15.0452,2.8891,22.7556,.0709,36.9902,.2018,73.9805,.2237,110.9707,.0045,7.4443-.1703,7.5637-7.8831,7.5839-23.6609,.0616-47.3221,.059-70.983,.0045-8.4317-.0194-8.534-.1195-8.5501-9.1107-.0513-28.6599,.0015-57.3197-.0366-85.9796-.0079-5.9957-.5193-12.0018-.2944-17.9843,.3924-10.4354-4.5663-17.5674-12.7597-23.3633-18.2231-12.8907-36.2545-26.0526-54.3613-39.1075-10.2692-7.4041-20.6176-14.7024-30.755-22.2828-3.7216-2.783-6.4553-3.144-10.3005,.1406-24.8292,21.21-49.8015,42.2542-74.8741,63.176-7.8243,6.5291-10.8193,14.9683-11.0523,24.662-.2642,10.9917-.2706,21.9907-.2892,32.9868-.0391,22.9946,.032,45.9893-.0379,68.9836-.0234,7.7042-.156,7.8489-7.6266,7.871-23.9941,.071-47.9898-.1055-71.9819,.1266-5.2436,.0507-6.9179-1.6692-6.875-6.8412,.3121-37.6541-.0281-75.3184,.704-112.9626,.5578-28.6801,13.285-51.7566,35.3408-69.92,21.0919-17.3696,42.0486-34.9036,63.0262-52.4115,2.7764-2.3171,5.9754-4.233,8.3073-8.1469-1.7814-2.9879-5.0779-4.676-7.8676-6.7542-20.5743-15.3256-41.0063-30.8545-61.8872-45.7532-24.3645-17.3842-36.5801-41.0906-37.0776-70.5646-.6355-37.647-.3927-75.3094-.4312-112.9653-.0071-6.9569,.2054-7.1138,7.3345-7.136,23.9941-.0748,47.9887-.0801,71.9827,.0051,6.8712,.0243,7.0328,.2058,7.0483,7.4382,.0665,30.9926,.027,61.9852,.0323,92.9779,.0007,3.9989,.117,7.9991,.0411,11.9963-.1855,9.7758,3.7901,17.1786,11.8284,22.8546,18.7784,13.2595,37.3577,26.8009,56.0223,40.2217,10.8201,7.7803,21.7914,15.3611,32.402,23.4169,4.0411,3.068,6.6009,2.5787,10.2515-.6093,23.3427-20.3833,46.7727-40.6703,70.4131-60.7069,10.4215-8.8329,15.123-19.5289,14.954-33.2382-.3945-31.9875-.1458-63.9833-.0957-95.9757,.0129-8.255,.1176-8.3688,8.1154-8.3889,23.6603-.0599,47.3211-.0613,70.9814,.0006,8.1092,.0212,8.2622,.1373,8.2763,8.3824,.0596,34.9916-.0367,69.9835,.0345,104.9751,.0629,30.8904-11.3043,56.2968-35.3692,76.0316-20.6112,16.9028-40.9202,34.1748-61.3144,51.3412-3.7583,3.1633-7.9481,5.9137-10.8591,9.9181Z"/>
  <path d="M1980.0647,1674.2119c-3.7697,1.5344-5.5081,4.925-7.8291,7.5846-25.1971,28.8713-50.4266,57.7164-75.333,86.8376-4.3353,5.0688-8.8225,7.1173-15.4047,6.8516-11.6445-.4701-23.3322-.4236-34.981-.0098-5.9036,.2097-9.7936-1.807-13.6183-6.2623-25.3944-29.5813-51.0453-58.9427-76.6716-88.3241-2.1161-2.426-3.6614-5.5199-8.1522-7.3663,0,3.9966-.0001,7.4744-.0001,10.9521-.0001,108.9712,.0164,217.9423-.0203,326.9135-.0046,13.928,1.5764,12.2211-12.1833,12.2704-22.327,.0802-44.6549,.0665-66.9821-.007-7.0349-.0232-7.0441-.1689-7.2438-7.1949-.0474-1.6649-.0081-3.3323-.0081-4.9985,0-156.2919-.0116-312.5839,.0194-468.8757,.0028-14.1576-1.4729-12.1506,12.1893-12.2389,16.3284-.1055,32.6694,.3319,48.9813-.196,6.7545-.2186,10.9918,2.2206,15.2072,7.1556,40.4711,47.3794,81.1351,94.5941,121.7767,141.8278,2.1469,2.4951,3.8674,5.455,7.4979,7.3704,3.1592-4.0831,6.3168-8.2651,9.5785-12.3644,37.5602-47.2063,77.0205-92.8209,116.1725-138.6946,2.703-3.1669,5.3436-5.3135,10.0269-5.2432,19.3239,.2898,38.6565,.2695,57.9817,.025,5.2285-.0663,7.356,1.679,6.7808,6.8658-.2192,1.9751-.0325,3.995-.0322,5.9945,0,155.9584,.0002,311.9167,0,467.8751,0,1.333,.0134,2.6661-.0032,3.999-.1072,8.6174-.1089,8.6912-8.7891,8.707-22.9939,.042-45.9879,.0446-68.9817-.002-8.5778-.0173-8.6757-.0992-8.6819-8.848-.0343-48.3206-.0168-96.641-.0168-144.9615-.0001-61.9836,.0193-123.9672-.0566-185.9507-.0038-3.14,1.1248-6.562-1.2231-9.6921Z"/>
</svg>
